<!--?xml version="1.0" encoding="utf-8"?-->
<!-- Generator: Adobe Illustrator 19.1.1, SVG Export Plug-In . SVG Version: 6.00 Build 0)  -->
<svg version="1.1" id="_x31_0" xmlns="http://www.w3.org/2000/svg" xmlns:xlink="http://www.w3.org/1999/xlink" x="0px" y="0px" viewBox="0 0 512 512" style="width: 256px; height: 256px; opacity: 1;" xml:space="preserve">
<style type="text/css">
	.st0{fill:#374149;}
</style>
<g>
	<path class="st0" d="M69.514,117.686l0.442-0.206l0.327-0.358c15.145-16.863,43.986-46.17,66.928-52.976
		c4.222-1.254,10.602-2.747,16.974-2.747c7.394,0,13.079,1.982,16.906,5.895c7.126,7.263,9.024,22.347,5.29,42.961v1.718
		l1.638,0.514c6.121,1.921,13.194,4.131,21.303,6.559l2.462,0.743l0.502-2.527c7.675-38.578-2.347-58.65-12.103-68.7
		c-8.91-9.111-21.387-13.925-36.09-13.925c-7.645,0-15.877,1.284-24.466,3.822C93.607,49.158,53.173,94.401,32.27,120.418
		l-3.202,3.986l7.184-0.251C53.112,123.478,59.636,122.209,69.514,117.686z" style="fill: rgb(255, 255, 255);"></path>
	<path class="st0" d="M32.394,120.518c20.893-26.004,61.312-71.223,97.279-81.905c8.57-2.532,16.786-3.816,24.42-3.816
		c14.658,0,27.098,4.798,35.976,13.877c9.73,10.023,19.722,30.054,12.061,68.557l-0.503,2.526l-2.259-0.865
		c-8.108-2.427-15.182-4.638-21.301-6.558l-1.638-0.514l0.112-1.566c3.712-20.475,1.818-35.782-5.335-43.073
		c-3.856-3.944-9.582-5.944-17.02-5.944c-6.4,0-12.788,1.498-17.019,2.754c-22.99,6.821-51.847,36.148-67.002,53.023l-0.717,0.525
		c-9.855,4.514-16.37,5.779-33.202,6.453l-6.834,0.239L32.394,120.518z" style="fill: rgb(255, 255, 255);"></path>
	<path class="st0" d="M488.261,96.97c-9.482-6.277-20.785-9.459-33.59-9.459c-17.751,0-37.515,6.288-54.222,17.256
		c-19.999,13.201-36.669,29.996-47.126,41.764l-2.874,3.236l28.041,4.165c0.877,0.138,1.692,0.343,2.508,0.549l1.295,0.324
		l0.938-0.945c10.8-10.881,21.539-19.866,31.936-26.707c12.324-8.118,26.676-12.774,39.367-12.774
		c7.583,0,14.154,1.692,18.994,4.894c13.3,8.803,12.911,28.551,10.251,43.566c-7.98,44.725-73.879,111.592-101.836,138.261
		l-1.067,1.018l0.458,1.398c3.003,9.314,6.052,16.422,7.682,19.935l2.546,5.385l2.347-2.168
		c39.283-36.353,106.622-105.365,116.188-159.107C517.933,123.68,499.77,104.492,488.261,96.97z" style="fill: rgb(255, 255, 255);"></path>
	<path class="st0" d="M389.162,323.381c-1.234-2.656-4.451-9.915-7.676-19.915l-0.457-1.399l1.025-0.852
		c27.972-26.683,93.894-93.579,101.883-138.349c2.669-15.066,3.046-34.882-10.322-43.728c-4.865-3.218-11.464-4.92-19.081-4.92
		c-12.722,0-27.103,4.666-39.455,12.801c-10.388,6.834-21.142,15.827-31.961,26.728l-0.938,0.945l-1.143-0.366
		c-0.831-0.21-1.647-0.414-2.522-0.552l-28.042-4.165l2.97-2.971c10.443-11.752,27.091-28.533,47.095-41.738
		c16.679-10.949,36.41-17.229,54.134-17.229c12.775,0,24.046,3.174,33.502,9.432c11.486,7.509,29.586,26.642,21.768,70.429
		c-9.557,53.689-76.867,122.674-116.14,159.018l-2.187,2.02L389.162,323.381z" style="fill: rgb(255, 255, 255);"></path>
	<path class="st0" d="M375.282,341.956l-3.171-6.474c-0.29-0.602-2.896-6.128-5.93-14.626c-3.826-10.762-8.727-27.161-10.328-44.177
		c-3.277-35.69,5.351-59.253,8.072-65.628l11.776-27.755c1.014-2.416,0.861-5.11-0.419-7.394c-1.289-2.29-3.506-3.83-6.113-4.222
		l-7.134-1.029l-25.67-3.822c-49.322-7.569-96.173-17.725-139.244-30.186c-7.995-2.347-14.97-4.474-21.067-6.459
		c-10.282-3.316-19.558-6.586-27.583-9.71c-0.496-0.194-0.831-0.317-0.877-0.332c0.015,0.004,0.046,0.015,0.099,0.034l-1.638-0.674
		l-1.464-0.442c-6.615-2-12.835-2.968-19.009-2.968c-15.739,0-27.522,6.116-39.078,12.118c-3.574,1.898-7.218,3.796-11.463,5.77
		c-8.59,4.086-15.061,6.002-23.818,7.074c-4.154,0.438-8.887,0.728-14.497,0.945l-7.153,0.294l-15.815,0.743L7.476,165.14
		c-1.631,6.018-9.622,38.841-6.925,94.202c3.716,76.09,37.234,170.482,120.182,207.224c16.288,7.164,33.818,10.796,52.103,10.796
		c56.882,0,108.124-35.087,127.506-50.167c27.622-21.406,63.978-53.754,64.306-54.046l9.497-8.403
		c5.069-4.539,6.471-11.715,3.498-17.839L375.282,341.956z M279.436,400.237c-16.585,12.93-60.182,43.006-106.599,43.006
		c-13.643,0-26.525-2.656-38.278-7.896c-52.278-23.19-77.087-73.277-88.768-112.427l166.706,6.512
		c5.353,0.209,9.862-3.959,10.075-9.311v-0.004c0.213-5.358-3.961-9.873-9.318-10.082l-172.478-6.71
		c-3.361-15.343-5.491-31.071-6.182-45.621c-0.095-1.75-0.156-3.498-0.217-5.48l12.153,0.366l180.259,6.079
		c5.35,0.181,9.835-4.006,10.024-9.355l0,0c0.19-5.362-4.01-9.862-9.373-10.041l-188.318-6.306l-5.023-0.202
		c0.362-31.486,4.486-51.166,5.815-56.73c20.05-0.938,32.298-2.907,49.798-11.185c4.84-2.298,8.986-4.47,12.69-6.41
		c9.466-4.954,15.717-8.231,23.178-8.231c2.828,0,5.854,0.499,9.04,1.44c0.541,0.225,54.58,22.519,149.502,40.747l-1.509,6.181
		c-0.434,1.841-0.899,3.815-1.296,5.842c-4.123,19.199-8.62,48.711-6.677,80.27c2.432,38.719,11.19,69.165,18.102,87.884
		c0.754,2.054,1.524,4.014,2.248,5.881l0.564,1.44c0.732,1.902,1.471,3.651,2.158,5.282l0.13,0.312
		C291.593,390.622,285.267,395.713,279.436,400.237z M330.731,357.622c-6.204,5.321-14.443,12.374-23.186,19.798
		c-0.236-0.564-1.715-4.158-1.715-4.158l-1.082-2.95c-0.518-1.387-1.051-2.824-1.562-4.341
		c-6.326-17.816-14.337-46.513-16.578-82.015c-1.852-30.042,2.554-58.582,6.57-77.206l1.601-7.161c0,0,0.96-3.868,1.265-5.015
		c11.722,2.158,23.605,4.154,35.366,5.953c-4.695,11.97-13.102,39.844-9.512,79.306c2.561,26.757,11.349,51.238,16.372,63.483
		c1.036,2.431,1.882,4.291,2.446,5.495C338.933,350.409,335.396,353.545,330.731,357.622z" style="fill: rgb(255, 255, 255);"></path>
	<path class="st0" d="M172.836,477.202c-18.263,0-35.771-3.627-52.038-10.782C37.922,429.711,4.425,335.377,0.712,259.334
		c-2.698-55.361,5.289-88.143,6.918-94.153l6.28-22.106l22.822-0.92c5.614-0.218,10.35-0.507,14.506-0.946
		c8.8-1.077,15.27-2.998,23.87-7.088c4.247-1.975,7.892-3.874,11.47-5.773c11.452-5.949,23.295-12.101,39.003-12.101
		c6.167,0,12.37,0.969,18.962,2.962l1.463,0.442l2.403,0.967c8.092,3.15,17.375,6.418,27.594,9.714
		c6.098,1.986,13.074,4.113,21.071,6.461c43.07,12.462,89.925,22.619,139.265,30.191l25.671,3.822l7.134,1.029
		c2.545,0.383,4.731,1.894,5.996,4.143c1.256,2.238,1.406,4.882,0.411,7.252l-11.775,27.755
		c-2.726,6.384-11.363,29.992-8.084,65.705c1.601,17.018,6.505,33.438,10.337,44.215c3.16,8.855,5.824,14.41,5.935,14.642
		l3.172,6.476l2.362,4.949c2.946,6.067,1.554,13.16-3.46,17.651l-9.497,8.402c-0.346,0.31-36.778,32.713-64.297,54.04
		C280.87,442.142,229.669,477.202,172.836,477.202z M45.638,322.966c11.47,38.441,36.195,89.167,88.858,112.527
		c11.771,5.248,24.672,7.91,38.341,7.91c46.477,0,90.1-30.099,106.698-43.041c5.832-4.524,12.159-9.616,18.41-14.75
		c-0.852-2.323-1.549-3.982-2.238-5.776c0,0-2.189-5.621-2.812-7.318c-6.913-18.718-15.664-49.153-18.093-87.838
		c-1.944-31.57,2.556-61.053,6.673-80.226c0.397-2.028,0.862-4.001,1.295-5.839l1.509-6.18
		c-94.769-18.369-149.059-40.709-149.597-40.933c-3.266-0.966-6.321-1.452-9.1-1.452c-7.489,0-13.742,3.272-23.205,8.224
		c-3.772,1.976-7.908,4.142-12.733,6.433c-17.645,8.346-30.097,10.252-49.737,11.17c-1.422,5.45-5.606,25.288-5.967,56.887
		l5.175,0.363l188.319,6.306c2.553,0.086,4.918,1.16,6.659,3.026c1.742,1.866,2.65,4.298,2.56,6.849
		c-0.182,5.163-4.368,9.207-9.531,9.207L46.536,252.43l-12.154-0.366c-0.103,2.147-0.042,3.898,0.053,5.649
		c0.69,14.536,2.829,30.32,6.186,45.646l172.628,6.837c2.549,0.099,4.906,1.186,6.637,3.058c1.731,1.873,2.629,4.308,2.527,6.857
		c-0.203,5.142-4.389,9.169-9.528,9.169l-167.31-6.527L45.638,322.966z M294.623,199.553l-1.602,7.164
		c-4.022,18.649-8.426,47.187-6.574,77.25c2.242,35.53,10.258,64.234,16.587,82.059c0.51,1.516,1.044,2.954,1.563,4.343l1.082,2.949
		l1.718,4.164c8.994-7.364,17.234-14.418,23.438-19.738c4.666-4.079,8.203-7.215,9.986-8.813c-0.526-1.39-1.37-3.249-2.406-5.677
		c-5.011-12.216-13.802-36.703-16.36-63.436c-3.534-38.847,4.437-66.316,9.502-79.231c-11.976-2.03-23.873-4.032-35.485-6.169
		l-0.146-0.027L294.623,199.553z" style="fill: rgb(255, 255, 255);"></path>
</g>
</svg>
